# xmcd
#
# Track frame offsets:
#	150
#	15952
#	36375
#	50402
#	67373
#	80137
#	91743
#	103568
#	119562
#	133784
#	149849
#	168239
#	181491
#	196774
#	221242
#	238347
#	257596
#	272197
#	286126
#	295448
#	305142
#	319875
#	332143
#
# Disc length: 4659 seconds
#
# Revision: 0
# Processed by: cddbd v1.5.2PL0 Copyright (c) Steve Scherf et al.
# Submitted via: EasyCDDAExtractor 16.0.8.1
#
DISCID=76123117
DTITLE=Világslágerek magyarul - Egy könnycsepp az arcodon
DYEAR=2008
DGENRE=Classic Rock
TTITLE0=Egy könnycsepp az arcodon
TTITLE1=Azok a szép napok
TTITLE2=Bolond remény
TTITLE3=Mammy blue
TTITLE4=Csókolj meg
TTITLE5=Átölelsz még
TTITLE6=Egy kis flört
TTITLE7=Menetjegy
TTITLE8=Egy perc az élet
TTITLE9=Papa engedj
TTITLE10=Szavak, szavak
TTITLE11=Még úgy fáj
TTITLE12=Ha véget ér egy szerelem
TTITLE13=Chiquitita
TTITLE14=Várni kell
TTITLE15=Mama Leone
TTITLE16=Soha, soha, soha
TTITLE17=Árva , bús éjszakán
TTITLE18=Tövis és rózsa
TTITLE19=Sztár volt Lollypop
TTITLE20=Amarillo
TTITLE21=Bolond az én szívem
TTITLE22=Szerenád
EXTD=
EXTT0=
EXTT1=
EXTT2=
EXTT3=
EXTT4=
EXTT5=
EXTT6=
EXTT7=
EXTT8=
EXTT9=
EXTT10=
EXTT11=
EXTT12=
EXTT13=
EXTT14=
EXTT15=
EXTT16=
EXTT17=
EXTT18=
EXTT19=
EXTT20=
EXTT21=
EXTT22=
PLAYORDER=
